<svg width="107" height="103" viewBox="0 0 107 103" fill="none" xmlns="http://www.w3.org/2000/svg">
<g clip-path="url(#clip0_1_65)">
<path d="M32.2706 84.6411C31.5028 84.0865 30.9305 83.3039 30.6357 82.4054C30.3409 81.5068 30.3387 80.5383 30.6293 79.6384L31.5682 75.765C31.7359 75.0841 32.0452 74.4459 32.4761 73.8919C32.907 73.3378 33.4498 72.8803 34.0695 72.549L37.1513 70.9338C39.0524 69.9484 40.5704 68.3598 41.4658 66.4188C42.3613 64.4777 42.5831 62.2946 42.0965 60.2139L42.0535 60.021C41.4829 57.6909 40.0612 55.6569 38.0664 54.3167C36.0716 52.9764 33.6471 52.4265 31.2672 52.7743L27.8199 53.2674C27.119 53.3677 26.4048 53.319 25.7242 53.1244C25.0436 52.9297 24.412 52.5937 23.8709 52.1382L20.825 49.5583C20.069 48.9943 19.5076 48.2097 19.2187 47.3134C18.9298 46.4171 18.9276 45.4533 19.2124 44.5557C19.8609 42.5669 19.8423 40.4217 19.1595 38.4444C18.4766 36.4671 17.1667 34.7654 15.4277 33.5965C13.6887 32.4276 11.6152 31.8552 9.521 31.9658C7.42675 32.0764 5.42559 32.8641 3.82017 34.2096C2.21475 35.5552 1.09241 37.3854 0.622875 39.4236C0.153345 41.4618 0.362171 43.5969 1.21777 45.5062C2.07337 47.4155 3.5292 48.995 5.36509 50.0059C7.20097 51.0168 9.31704 51.4041 11.3933 51.1091C11.7301 51.0591 12.0598 50.9876 12.3895 50.909L13.2853 50.7375C14.0294 50.5909 14.7971 50.6143 15.5308 50.8062C16.2644 50.9981 16.9449 51.3533 17.521 51.8452L21.6635 55.4185C22.2966 55.9714 22.7801 56.6742 23.0694 57.4622C23.3587 58.2503 23.4446 59.0982 23.3191 59.928L23.2187 60.5569L23.1327 61.1072V61.1573C22.9981 62.3043 23.0709 63.4662 23.3477 64.5876C23.3477 64.652 23.3477 64.7163 23.3979 64.7735V64.8449C23.7951 66.3658 24.5633 67.7652 25.634 68.9185C25.763 69.0543 25.892 69.1829 26.0282 69.3116L26.4797 69.7618C27.0758 70.3644 27.5088 71.108 27.7381 71.9229C27.9675 72.7379 27.9858 73.5975 27.7912 74.4214L26.5299 79.7171C26.3564 80.4531 26.0163 81.1398 25.5355 81.7245C25.0548 82.3093 24.4461 82.7764 23.7562 83.0903L22.9822 83.4476C22.6663 83.5705 22.3576 83.7113 22.0577 83.8692C20.6479 84.6112 19.4458 85.692 18.5602 87.0138C17.0966 89.1063 16.5265 91.6929 16.9755 94.2045C17.4244 96.7161 18.8555 98.9471 20.954 100.407C23.0524 101.866 25.6464 102.434 28.1652 101.987C30.6839 101.539 32.9212 100.112 34.3848 98.0196C35.251 96.8355 35.8322 95.4686 36.0834 94.0246C36.1491 93.699 36.1946 93.3696 36.2196 93.0384L36.3199 92.1951C36.2626 90.7124 35.8684 89.262 35.1669 87.9535C34.4654 86.6449 33.4751 85.5123 32.2706 84.6411Z" fill="#EDEDED"/>
<path d="M105.978 38.6235C105.47 37.072 104.575 35.6746 103.377 34.5625C102.178 33.4504 100.717 32.6601 99.1283 32.2658C97.54 31.8714 95.8772 31.886 94.296 32.308C92.7149 32.7301 91.2672 33.5458 90.0888 34.6786C89.8375 34.9041 89.5982 35.1427 89.3721 35.3933L88.7916 36.0222C88.2777 36.577 87.6445 37.0086 86.9395 37.2846C86.2345 37.5606 85.4759 37.6739 84.7207 37.6159L79.2739 37.1728C78.427 37.1029 77.6119 36.8196 76.9049 36.3496C76.1978 35.8796 75.6221 35.2382 75.2317 34.4856L74.945 33.9211C74.859 33.7495 74.7802 33.5852 74.687 33.4279V33.3779C74.1212 32.3682 73.3756 31.4697 72.4868 30.7265L72.3434 30.6122L72.2789 30.555C71.0594 29.5631 69.6151 28.8835 68.0719 28.5754H68.0146L67.4627 28.4825L66.8249 28.4325C65.9872 28.2957 65.198 27.9493 64.5312 27.4256C63.8643 26.9019 63.3417 26.218 63.0121 25.438L60.905 20.4354C60.6147 19.7366 60.4871 18.9812 60.5318 18.2261C60.5765 17.471 60.7923 16.7359 61.163 16.0759L61.5858 15.3613C61.7674 15.0754 61.9322 14.7824 62.0804 14.4823C62.7294 13.1685 63.0654 11.7231 63.0622 10.2586C62.9937 7.75184 61.9469 5.37068 60.1446 3.6218C58.3423 1.87291 55.9268 0.894363 53.4119 0.894363C50.8971 0.894363 48.4816 1.87291 46.6793 3.6218C44.8769 5.37068 43.8302 7.75184 43.7617 10.2586C43.7585 11.7231 44.0945 13.1685 44.7435 14.4823C44.8964 14.7824 45.0613 15.0754 45.238 15.3613L45.6609 16.0759C46.0316 16.7359 46.2474 17.471 46.2921 18.2261C46.3368 18.9812 46.2092 19.7366 45.9189 20.4354L43.8118 25.438C43.4848 26.2144 42.9665 26.8959 42.305 27.4193C41.6435 27.9428 40.8602 28.2913 40.0277 28.4325L39.4041 28.5325L38.8451 28.6254H38.795C37.6554 28.8492 36.567 29.2804 35.5842 29.8975L35.4408 29.9904C35.412 30.0028 35.3854 30.0197 35.362 30.0404C34.0328 30.8904 32.9367 32.0571 32.1727 33.4351V33.4851C32.0867 33.6423 32.0007 33.8139 31.9219 33.9782C28.0087 42.3541 36.5732 46.9994 37.6554 47.2852C38.9773 47.6835 40.3669 47.8078 41.7387 47.6505C43.1105 47.4932 44.4356 47.0576 45.6322 46.3705L45.8114 46.2561C47.8535 44.9926 49.3476 43.0131 50.0001 40.7066C50.6526 38.4002 50.4163 35.9339 49.3375 33.7924L47.7751 30.6479C47.4627 30.0141 47.2884 29.3215 47.2637 28.6157C47.239 27.9099 47.3645 27.2069 47.6318 26.5529L49.1225 22.8652C49.4241 21.9739 49.9985 21.1993 50.7648 20.6507C51.5311 20.102 52.4507 19.8069 53.394 19.8069C54.3374 19.8069 55.257 20.102 56.0233 20.6507C56.7896 21.1993 57.364 21.9739 57.6655 22.8652L59.1849 26.5529C59.4534 27.2064 59.58 27.9091 59.5565 28.6149C59.5331 29.3207 59.36 30.0136 59.0487 30.6479L57.5079 33.7638C56.5476 35.6807 56.2588 37.8631 56.6875 39.9628C57.1161 42.0625 58.2376 43.9585 59.8729 45.3485L60.0235 45.4843C61.2759 46.5371 62.7771 47.2538 64.385 47.5665C65.9928 47.8791 67.6541 47.7774 69.2115 47.271C70.6397 46.8166 71.9391 46.0303 73.0028 44.9769L75.5041 42.5542C76.0081 42.0545 76.6138 41.6684 77.2801 41.4219C77.9465 41.1753 78.6581 41.074 79.367 41.1249L83.3519 41.425C84.2947 41.4373 85.2103 41.7418 85.9718 42.2963C86.7333 42.8508 87.303 43.6277 87.6019 44.5195C88.2111 46.3919 89.7519 49.9867 95.3923 51.0658C97.0138 51.2945 98.6669 51.1081 100.196 50.5241C101.726 49.9402 103.081 48.978 104.134 47.7279C105.188 46.4779 105.905 44.9811 106.219 43.3784C106.533 41.7757 106.433 40.1198 105.928 38.5664L105.978 38.6235Z" fill="#EC1D35"/>
<path d="M71.1447 53.1458C69.8375 53.5949 68.6375 54.3086 67.6201 55.242C66.6026 56.1755 65.7895 57.3085 65.2319 58.5701C65.2319 58.6344 65.1746 58.6987 65.1531 58.763C64.255 60.9837 64.2184 63.4583 65.0505 65.7044C65.8826 67.9505 67.5237 69.8071 69.6539 70.9123L72.7429 72.5274C73.3681 72.858 73.9161 73.3167 74.3509 73.8734C74.7856 74.4301 75.0974 75.0723 75.2657 75.7577L76.2117 79.6312C76.501 80.5298 76.4983 81.4965 76.2041 82.3935C75.9099 83.2905 75.3392 84.072 74.5734 84.6265C73.8076 85.1811 72.8857 85.4803 71.9393 85.4816C70.9928 85.4829 70.0701 85.1862 69.3028 84.6338L65.8985 82.547C65.2949 82.1797 64.776 81.6893 64.3758 81.1079C63.9756 80.5266 63.7032 79.8675 63.5764 79.1738L62.9887 75.7505C62.6396 73.6375 61.5923 71.7014 60.0133 70.2499C58.4343 68.7984 56.4141 67.9147 54.2737 67.7392H54.0658C51.6675 67.5661 49.2909 68.2923 47.4016 69.7756C45.5124 71.2589 44.2468 73.3923 43.8529 75.7577C42.4912 83.9048 49.8373 86.5562 52.6826 86.9207H52.9478C54.52 87.0104 56.0902 86.7134 57.5203 86.056H57.5705L58.0722 85.8058L58.6383 85.52C59.3968 85.1389 60.2398 84.9561 61.0884 84.9886C61.937 85.0211 62.7635 85.2678 63.4904 85.7058L68.156 88.5644C68.8042 88.9567 69.3536 89.4916 69.7624 90.1284C70.1711 90.7651 70.4282 91.4867 70.514 92.2378L70.6143 93.0811C70.6368 93.4189 70.6775 93.7553 70.7362 94.0888C71.0165 95.6995 71.7036 97.2126 72.7327 98.4852C73.7618 99.7579 75.0989 100.748 76.6181 101.363C78.1373 101.978 79.7884 102.196 81.4159 101.999C83.0433 101.801 84.5934 101.193 85.9201 100.232C87.2467 99.2718 88.3062 97.9902 88.9986 96.5083C89.6909 95.0264 89.9935 93.3931 89.8776 91.7624C89.7617 90.1316 89.2312 88.5572 88.3362 87.1874C87.4412 85.8177 86.2111 84.6979 84.7619 83.9334C84.4609 83.7762 84.1527 83.6404 83.8373 83.5118L83.0633 83.1545C82.3742 82.8413 81.7661 82.3753 81.2854 81.7919C80.8047 81.2085 80.4641 80.5232 80.2897 79.7884L79.0283 74.4856C78.8338 73.6617 78.852 72.8021 79.0814 71.9871C79.3108 71.1722 79.7438 70.4286 80.3399 69.826L80.7914 69.3758C80.9275 69.2471 81.0565 69.1185 81.1856 68.9827V68.9398C81.9749 68.0937 82.6017 67.1102 83.0346 66.0383L83.0991 65.8739V65.7953C83.6684 64.3319 83.8701 62.7518 83.6868 61.1929V61.1357C82.4111 51.8237 73.2087 52.3811 71.1447 53.1458Z" fill="#402FFF"/>
</g>
<defs>
<clipPath id="clip0_1_65">
<rect width="106.02" height="101.242" fill="white" transform="translate(0.377808 0.894348)"/>
</clipPath>
</defs>
</svg>
